# xmcd
#
# Track frame offsets:
#	182
#	13975
#	27427
#	45640
#	60242
#	81000
#	97410
#	113465
#	126097
#	149012
#	170175
#	188760
#	201847
#	225257
#	240765
#	260800
#	274165
#	287272
#	308612
#	322320
#
# Disc length: 4484 seconds
#
# Revision: 2
# Processed by: cddbd v1.5.2PL0 Copyright (c) Steve Scherf et al.
# Submitted via: audiograbber 1.83.01
#
DISCID=1c118214
DTITLE=John Denver - Country Classics John Denver CD1
DYEAR=1995
DGENRE=Country
TTITLE0=Annie's Song
TTITLE1=Perhaps Love
TTITLE2=Leaving On A Jetplane
TTITLE3=Shanghai Breezes
TTITLE4=To The Wild Country
TTITLE5=Calypso
TTITLE6=I'm Sorry
TTITLE7=Baby You Look Good To Me
TTITLE8=Sweet Surrender (Live)
TTITLE9=Poems, Prayers And Promises
TTITLE10=Like A Sad Song
TTITLE11=Love Again
TTITLE12=Sunshine On My Shoulders
TTITLE13=Friends With You
TTITLE14=What's On Your Mind
TTITLE15=Please, Daddy (Don't Get Drunk This Christmas)
TTITLE16=Follow Me
TTITLE17=Back Home Again
TTITLE18=Annie's Other Song (Live)
TTITLE19=This Old Guitar (Live)
EXTD=1995 The Reader's Digest Association LVER-A-012\nRDCD 12-11-1213
EXTT0=
EXTT1=Duet With Placido Domingo\n
EXTT2=
EXTT3=
EXTT4=
EXTT5=
EXTT6=
EXTT7=
EXTT8=
EXTT9=
EXTT10=
EXTT11=
EXTT12=
EXTT13=
EXTT14=
EXTT15=
EXTT16=
EXTT17=
EXTT18=
EXTT19=
PLAYORDER=
